<?xml version="1.0" encoding="UTF-8"?>
<!DOCTYPE svg PUBLIC "-//W3C//DTD SVG 1.1//EN" "http://www.w3.org/Graphics/SVG/1.1/DTD/svg11.dtd">
<!-- Creator: CorelDRAW X7 -->
<svg xmlns="http://www.w3.org/2000/svg" xml:space="preserve" width="155.115mm" height="34.6341mm" version="1.1" style="shape-rendering:geometricPrecision; text-rendering:geometricPrecision; image-rendering:optimizeQuality; fill-rule:evenodd; clip-rule:evenodd"
viewBox="0 0 15083 3368"
 xmlns:xlink="http://www.w3.org/1999/xlink">
 <defs>
  <style type="text/css">
   <![CDATA[
    .fil1 {fill:#212221}
    .fil2 {fill:#4C9B45}
    .fil0 {fill:#8A2432}
   ]]>
  </style>
 </defs>
 <g id="Camada_x0020_1">
  <metadata id="CorelCorpID_0Corel-Layer"/>
  <g id="logo-centraldeadubos-colorido.svg">
   <g>
    <g>
     <path class="fil0" d="M7620 715c0,196 0,1247 0,1280 0,111 42,291 252,291 209,0 251,-191 251,-291 0,-61 0,-643 0,-643 0,0 592,769 662,858 87,110 427,159 427,-142 0,-300 0,-1213 0,-1308 0,-147 -19,-338 -250,-338 -232,0 -249,189 -249,338 0,57 0,618 0,618 0,0 -599,-799 -645,-854 -127,-161 -448,-159 -448,191z"/>
     <path class="fil0" d="M10416 452c-26,0 -155,0 -279,0 0,0 -127,0 -258,0 -124,0 -253,0 -279,0 -152,0 -263,74 -263,234 0,159 111,235 274,235 47,0 96,0 144,0 0,289 0,1028 0,1076 0,162 79,283 253,283 172,0 253,-121 253,-297 0,-211 0,-811 0,-1064 48,0 97,0 144,0 163,0 274,-76 274,-235 0,-158 -111,-232 -263,-232z"/>
     <path class="fil0" d="M7128 1790c-7,0 -26,0 -51,0 0,0 -149,0 -293,0 0,-60 0,-128 0,-198 142,0 252,0 252,0 7,0 17,0 24,0 163,0 275,-76 275,-235 0,-160 -112,-234 -263,-234 -6,0 -19,0 -36,0 0,0 -123,0 -252,0 0,-77 0,-146 0,-198 163,0 293,0 293,0 8,0 17,0 25,0 163,0 274,-76 274,-235 0,-161 -111,-234 -263,-234 -5,0 -19,0 -36,0 0,0 -378,0 -502,0 -17,0 -29,0 -36,0 -152,0 -263,73 -263,234 0,0 0,1278 0,1339 0,158 111,234 274,234 13,0 26,0 40,0 238,0 486,0 486,0 13,0 26,0 39,0 163,0 274,-76 274,-234 2,-165 -111,-239 -261,-239z"/>
     <path class="fil0" d="M14816 1792c-8,0 -23,0 -42,0 0,0 -149,0 -293,0 0,-279 0,-1040 0,-1087 0,-162 -79,-283 -253,-283 -172,0 -253,121 -253,296 0,271 0,1311 0,1311 0,158 111,234 274,234 11,0 21,0 32,0 242,0 495,0 495,0 12,0 21,0 32,0 163,0 275,-76 275,-234 -4,-163 -116,-237 -267,-237z"/>
     <path class="fil0" d="M13791 1934c-17,-57 -319,-940 -444,-1250 -40,-98 -114,-264 -335,-264 -212,0 -300,164 -340,264 -125,324 -439,1188 -456,1244 -49,155 -22,295 144,346 149,46 278,-37 331,-206 9,-30 23,-70 38,-117l550 0c15,47 26,85 36,115 51,169 179,254 329,208 168,-45 196,-185 147,-340zm-907 -469c45,-142 89,-281 124,-397 34,114 78,255 121,397l-245 0z"/>
     <path class="fil0" d="M12029 1828c-26,-34 -121,-149 -257,-300 223,-68 350,-223 350,-515 0,-370 -282,-559 -717,-559 0,0 -295,0 -350,0 -151,0 -262,73 -262,234 0,0 0,1252 0,1312 0,163 79,284 253,284 172,0 253,-121 253,-297 0,-64 0,-166 0,-284 153,191 305,380 375,467 109,137 261,169 383,72 138,-109 74,-287 -28,-414zm-595 -609c-40,0 -133,0 -133,0l0 -298c0,0 80,0 123,0 74,0 187,28 187,145 0,118 -100,153 -177,153z"/>
     <path class="fil0" d="M4621 1356c0,-265 137,-965 919,-965 426,0 639,257 520,465 -19,34 -100,142 -251,95 -140,-43 -153,-51 -267,-51 -113,0 -368,76 -368,452 0,376 194,472 368,472 91,0 191,-34 238,-56 121,-55 259,-30 312,89 65,149 -11,244 -81,310 -70,64 -206,143 -469,143 -801,-2 -921,-720 -921,-954z"/>
     <path class="fil1" d="M4756 3197l0 -679 334 0c48,0 89,6 121,17 32,12 59,29 80,51 21,23 34,53 43,89 10,36 13,80 13,129 0,38 0,72 0,104 0,32 -1,60 -3,87 -4,26 -8,49 -15,72 -8,20 -17,39 -31,56 -19,25 -43,44 -75,57 -32,13 -68,19 -110,19l-357 -2 0 0zm130 -108l184 0c34,0 60,-3 79,-11 19,-8 34,-21 43,-38 10,-19 16,-41 19,-70 2,-28 4,-64 4,-108 0,-43 -2,-79 -4,-107 -2,-31 -7,-53 -17,-70 -9,-17 -22,-31 -41,-38 -19,-8 -44,-11 -76,-11l-191 0 0 453z"/>
     <polygon class="fil1" points="6160,2626 6160,2802 6480,2802 6480,2898 6160,2898 6160,3089 6499,3089 6499,3197 6034,3197 6034,2518 6495,2518 6495,2626 6160,2626 "/>
     <path class="fil1" d="M8153 3069l-295 0 -41 130 -136 0 226 -679 191 0 231 679 -132 0 -44 -130zm-30 -99l-117 -351 -116 351 233 0z"/>
     <path class="fil1" d="M9076 3197l0 -679 335 0c47,0 88,6 121,17 32,12 58,29 79,51 21,23 34,53 43,89 10,36 14,80 14,129 0,38 0,72 0,104 0,32 -2,60 -4,87 -4,26 -8,49 -15,72 -8,20 -17,39 -31,56 -18,25 -43,44 -75,57 -32,13 -68,19 -110,19l-357 -2 0 0zm130 -108l184 0c34,0 60,-3 79,-11 19,-8 34,-21 44,-38 9,-19 15,-41 19,-70 1,-28 3,-64 3,-108 0,-43 -2,-79 -3,-107 -2,-31 -8,-53 -17,-70 -10,-17 -23,-31 -42,-38 -19,-8 -44,-11 -76,-11l-191 0 0 453z"/>
     <path class="fil1" d="M10864 2518l131 0 0 452c0,42 -4,76 -10,106 -7,30 -18,53 -37,74 -19,19 -42,34 -74,41 -30,10 -70,14 -119,14 -55,0 -102,-2 -144,-6 -41,-4 -74,-13 -102,-26 -26,-14 -47,-35 -60,-63 -14,-28 -19,-66 -19,-113l0 -479 130 0 0 460c0,26 2,47 6,62 4,15 11,27 22,36 12,8 27,13 46,15 19,2 45,4 77,4 29,0 53,0 74,-2 19,-2 34,-6 47,-13 12,-8 21,-17 25,-30 6,-14 7,-32 7,-57l0 -475 0 0z"/>
     <path class="fil1" d="M11783 3199l0 -679 348 0c32,0 61,2 83,8 23,5 44,15 59,28 15,13 26,30 34,53 8,21 11,49 11,81 0,21 -2,40 -3,57 -2,17 -6,32 -14,46 -7,13 -17,24 -28,34 -13,9 -28,17 -49,20l0 4c40,6 68,21 87,44 17,22 26,58 26,109 0,36 -4,66 -9,91 -6,25 -17,45 -32,61 -15,15 -34,26 -61,34 -24,7 -57,11 -92,11l-360 -2 0 0zm131 -395l164 0c23,0 42,-2 57,-4 15,-2 26,-7 36,-13 7,-8 15,-17 17,-29 4,-11 4,-28 4,-49 0,-34 -6,-55 -19,-66 -13,-11 -34,-15 -64,-15l-193 0 0 176 -2 0zm0 285l164 0c27,0 49,-2 66,-3 17,-2 31,-8 38,-16 10,-7 15,-17 17,-30 4,-13 4,-28 4,-49 0,-34 -6,-57 -17,-72 -11,-15 -34,-23 -68,-23l-206 0 2 193 0 0z"/>
     <path class="fil1" d="M13077 2902c0,-45 0,-85 0,-119 0,-34 1,-66 7,-93 4,-26 11,-51 19,-70 9,-20 21,-37 38,-52 15,-14 30,-25 49,-31 17,-7 36,-13 57,-15 20,-4 43,-6 68,-6 24,0 49,-1 77,-1 59,0 104,5 140,17 36,11 63,28 81,53 19,24 33,54 38,92 6,38 10,85 10,140 0,66 -2,125 -4,174 -2,49 -11,91 -28,123 -17,32 -44,57 -80,72 -36,15 -89,24 -157,24 -28,0 -53,0 -77,-2 -25,0 -48,-1 -68,-5 -21,-4 -40,-8 -57,-15 -17,-8 -34,-17 -49,-31 -15,-13 -29,-28 -36,-45 -10,-17 -15,-36 -19,-55 -4,-21 -6,-43 -8,-68 0,-28 -1,-55 -1,-87zm132 -40c0,53 0,95 2,125 2,30 7,53 17,70 9,15 26,27 49,30 23,4 53,8 94,8 40,0 70,-4 91,-9 21,-6 36,-19 47,-38 10,-19 16,-48 17,-85 2,-36 2,-85 2,-146 0,-38 -2,-70 -3,-96 -2,-25 -8,-46 -17,-59 -10,-15 -23,-25 -42,-30 -19,-6 -45,-10 -79,-10 -44,0 -78,2 -103,6 -24,4 -41,13 -52,30 -12,15 -17,40 -21,72 0,32 -2,78 -2,132z"/>
     <path class="fil1" d="M14816 3002c0,-22 -2,-41 -6,-53 -4,-13 -11,-20 -24,-28 -12,-6 -29,-9 -51,-11 -21,-2 -51,-4 -85,-4 -50,-2 -89,-6 -121,-11 -33,-6 -57,-16 -78,-31 -21,-15 -32,-34 -42,-60 -7,-27 -11,-61 -11,-102 0,-42 6,-74 15,-99 10,-24 27,-43 47,-56 21,-14 50,-23 84,-27 34,-4 73,-7 123,-7 43,0 83,2 115,5 32,4 60,12 81,25 21,11 38,30 47,53 12,23 16,55 16,93l0 30 -125 0c0,-23 -2,-40 -6,-55 -2,-13 -7,-25 -17,-32 -9,-8 -23,-13 -40,-15 -17,-2 -41,-4 -70,-4 -26,0 -47,2 -66,4 -19,2 -34,5 -45,11 -11,6 -21,15 -25,26 -5,12 -7,27 -7,48 0,19 2,34 4,47 3,11 7,21 15,28 7,8 17,12 30,16 13,3 30,5 49,5 59,4 106,8 148,10 39,3 71,11 98,22 24,12 43,31 55,55 11,25 17,61 17,108 0,41 -4,76 -10,102 -7,26 -19,49 -38,64 -18,17 -43,29 -73,36 -32,8 -72,12 -123,12 -53,0 -100,-2 -138,-4 -38,-4 -70,-12 -95,-25 -24,-13 -41,-32 -55,-58 -11,-27 -17,-63 -17,-108 0,-6 0,-10 0,-13 0,-4 0,-8 0,-14l123 0 0 15c0,25 2,46 8,59 6,13 13,23 24,30 12,6 27,10 44,12 19,2 42,2 68,2 28,0 51,0 70,-2 19,-2 34,-4 47,-12 12,-5 21,-15 27,-28 11,-15 13,-34 13,-59z"/>
    </g>
    <g>
     <circle class="fil1" cx="1706" cy="1685" r="312"/>
     <path class="fil0" d="M2434 2036c-178,367 -601,560 -1019,395 -418,-166 -622,-635 -460,-1049 165,-414 592,-588 1054,-448 185,57 436,59 574,-231 163,-338 -145,-552 -289,-603 -856,-297 -1832,80 -2176,949 -344,870 91,1855 970,2199 835,329 1760,-45 2144,-830 0,0 195,-412 -174,-607 -318,-168 -535,40 -624,225z"/>
     <path class="fil2" d="M4544 280c-59,0 -187,4 -304,-36 -121,-42 -600,-265 -995,-55 -448,240 -465,667 -588,894 -87,159 -301,431 -575,462 -5,0 -11,5 -11,13 0,7 8,13 15,13 74,-11 408,-58 707,2 286,59 773,250 1159,9 352,-219 446,-777 458,-854 11,-76 45,-282 147,-424 2,-3 4,-7 2,-11 -2,-9 -7,-13 -15,-13zm-511 236c-88,53 -270,161 -446,371 -176,211 -293,332 -520,431 -227,98 -425,128 -658,147 0,0 645,-96 932,-378 256,-251 356,-484 706,-624 349,-138 408,-126 408,-126 0,0 -333,124 -422,179z"/>
    </g>
   </g>
  </g>
 </g>
</svg>
